<svg width="60" height="60" viewBox="0 0 96 96">
    <path class="fill-gray-200" d="M93.2 46.7l-2.9-2-2.2-1.6c-30.2 7.8-38.6 28.1-38.6 28.1-.2.5-.4.9-.6 1.3 0 0 4.3-23.9 39.2-29.5l-1.6-1.3s-32.1 3.1-38.4 27.7c0 0 4.8-26.2 37.4-28.6L84 39.3s-31.7 2.4-36.2 25.9c-4.5-23.5-36.2-25.9-36.2-25.9L10 40.9c32.6 2.4 37.4 28.6 37.4 28.6C41.2 44.9 9 41.8 9 41.8l-1.6 1.3c34.9 5.6 39.2 29.5 39.2 29.5-.2-.4-.4-.9-.6-1.3 0 0-8.4-20.3-38.6-28.1l-2.2 1.6-2.9 2 41.3 29.5 3.8.8v.1l.3-.1.3.1V77l3.8-.8 41.4-29.5z" />
    <path class="fill-primary-500" d="M94.4 47.7L53.8 75.1v-.6c0-3.2-2.6-5.8-5.8-5.8-3.2 0-5.8 2.6-5.8 5.8v.6L1.6 47.7 0 50.1l42.5 28.8s1 2.6 5.7 2.6 5.2-2.6 5.2-2.6L96 50.1l-1.6-2.4z" />
    <circle class="fill-gray-200" cx="48" cy="32.6" r="17" />
</svg>